<svg width="32" height="32" viewBox="0 0 32 32" fill="currentColor" xmlns="http://www.w3.org/2000/svg">
<path fill-rule="evenodd" clip-rule="evenodd" d="M10.7324 8C10.3866 7.4022 9.74028 7 9 7C7.89543 7 7 7.89543 7 9C7 9.74028 7.4022 10.3866 8 10.7324V20V21.2676C7.4022 21.6134 7 22.2597 7 23C7 24.1046 7.89543 25 9 25C9.74028 25 10.3866 24.5978 10.7324 24H21.2676C21.6134 24.5978 22.2597 25 23 25C24.1046 25 25 24.1046 25 23C25 22.2597 24.5978 21.6134 24 21.2676V16.7324C24.5978 16.3866 25 15.7403 25 15C25 13.8954 24.1046 13 23 13C22.8208 13 22.6472 13.0236 22.482 13.0677L18.9323 9.51804C18.9764 9.35282 19 9.17916 19 9C19 7.89543 18.1046 7 17 7C16.2597 7 15.6134 7.4022 15.2676 8H12H10.7324ZM10.7324 22H21.2676C21.4432 21.6964 21.6964 21.4432 22 21.2676V16.7324C21.4022 16.3866 21 15.7403 21 15C21 14.8208 21.0236 14.6472 21.0677 14.482L17.518 10.9323C17.3528 10.9764 17.1792 11 17 11C16.2597 11 15.6134 10.5978 15.2676 10H12H10.7324C10.5568 10.3036 10.3036 10.5568 10 10.7324V20V21.2676C10.3036 21.4432 10.5568 21.6964 10.7324 22Z"/>
</svg>
